<?xml version="1.0" encoding="UTF-8"?>
<svg id="Layer_1" data-name="Layer 1" xmlns="http://www.w3.org/2000/svg" viewBox="0 0 720 152">
  <defs>
    <style>
      .cls-1 {
        fill: #c93;
      }

      .cls-1, .cls-2 {
        fill-rule: evenodd;
      }

      .cls-1, .cls-2, .cls-3, .cls-4 {
        stroke-width: 0px;
      }

      .cls-2, .cls-4 {
        fill: #1a1a1a;
      }
    </style>
  </defs>
  <path class="cls-2" d="m1.9,10.04l9.67,8.24v109.5h-.09c-.67,7.06-5.02,13.15-11.28,16.62H.2s28.98.01,28.98.01h0c-6.26-3.49-10.61-9.58-11.28-16.63h-.09V23.59l71.42,60.83L169.44,16.15v-6.87l-71.05,60.63L28.2,10.04H1.9Z"/>
  <path class="cls-4" d="m155.43,53.18v81.64c-1.97,3.99-5.22,7.33-9.27,9.58h0s30.96,0,30.96,0h0c-4.05-2.26-7.3-5.6-9.27-9.59V35.65l-12.41,10.43v7.11h0Z"/>
  <path class="cls-1" d="m90.67,18.7c13.88,0,26.44,5.64,35.52,14.76l-4.81,4.1c-7.91-7.77-18.75-12.56-30.71-12.56-24.21,0-43.83,19.62-43.83,43.83s19.62,43.83,43.83,43.83c22.02,0,40.24-16.24,43.36-37.39l-3.5,2.94-11,9.24v-11.42l10.98-9.22,3.69-3.1,5.63-4.73c.64,3.18.97,6.48.97,9.85,0,27.69-22.45,50.13-50.13,50.13s-50.13-22.45-50.13-50.13,22.44-50.13,50.13-50.13h0Zm0-10.8c17.17,0,32.68,7.1,43.76,18.53l-5.84,4.98.11.11c-9.67-9.85-23.14-15.97-38.03-15.97-29.42,0-53.27,23.85-53.27,53.27s23.85,53.27,53.27,53.27,53.27-23.85,53.27-53.27c0-4.18-.48-8.24-1.39-12.14l6.47-5.44c1.68,5.57,2.58,11.47,2.58,17.58,0,33.65-27.28,60.94-60.94,60.94s-60.93-27.28-60.93-60.94S57.01,7.9,90.67,7.9h0Z"/>
  <path class="cls-4" d="m301.85,37.08l.86,9.41-29.29,57.41s-.3.61-.91,1.82c-.61,1.21-1.21,2.69-1.82,4.44-.61,1.75-.98,3.44-1.12,5.08h-1.07l-2.89-8.02,36.24-70.13h0Zm-69.06,68.53v7.8h-11.87v-1.07h1.71c1.92,0,3.64-.59,5.13-1.76,1.5-1.18,2.39-2.83,2.67-4.97h2.35Zm3.85,1.71v.53c0,1.14.41,2.19,1.23,3.15.82.96,1.8,1.44,2.94,1.44h1.71v.96h-6.63v-6.09h.75Zm2.24-70.24h.96l2.99,8.55-6.74,67.78h-6.63l9.41-76.33h0Zm.96,0l32.93,62-4.28,16.14-31-59.44,2.35-18.71h0Zm62.97,0l9.73,76.33h-12.72l-5.67-56.98,7.7-19.35h.96,0Zm6.42,68.53h2.35c.36,2.14,1.27,3.8,2.73,4.97,1.46,1.17,3.15,1.76,5.08,1.76h1.71v1.07h-11.87v-7.8h0Zm-10.05,1.71h.75v6.09h-6.52v-.96h1.6c1.21,0,2.21-.48,2.99-1.44.78-.96,1.18-2.01,1.18-3.15v-.54h0Z"/>
  <path class="cls-3" d="m231.91,144.42c6.34,0,9.16-5.2,9.16-9.08v-.53c0-4.23-2.96-9.03-9.16-9.03s-9.15,4.81-9.15,9.03v.53c0,3.88,2.82,9.08,9.15,9.08h0Zm0-2.18c-4.15,0-6.73-3.4-6.73-7.14,0-3.93,2.57-7.14,6.73-7.14s6.73,3.21,6.73,7.14-2.57,7.14-6.73,7.14h0Z"/>
  <polygon class="cls-3" points="245.02 143.98 247.4 143.98 247.4 126.25 245.02 126.25 245.02 143.98 245.02 143.98"/>
  <polygon class="cls-3" points="252.6 143.98 262.6 143.98 262.6 141.84 254.98 141.84 254.98 126.25 252.6 126.25 252.6 143.98 252.6 143.98"/>
  <path class="cls-4" d="m366.17,37.01l33.25,76.01h-14.11l-23.52-60.62,4.38-15.39h0Zm-22.98,68.85c-.57,1.43-.68,2.64-.32,3.64.36,1,.96,1.76,1.82,2.3.86.54,1.71.8,2.57.8h.96v1.07h-22.24v-1.07h.96c1.64,0,3.33-.52,5.08-1.55,1.75-1.03,3.19-2.76,4.33-5.18h6.84Zm22.98-68.85l.64,10.26-26.73,66.07h-7.05l27.47-63.82c.14-.21.45-.84.91-1.87.46-1.03.98-2.24,1.55-3.64.57-1.39,1.07-2.74,1.5-4.06.43-1.32.68-2.3.75-2.94h.96,0Zm13.15,49.28v3.85h-32.5v-3.85h32.5Zm3.1,19.56h13.79c1.14,2.42,2.58,4.15,4.33,5.18,1.75,1.03,3.44,1.55,5.08,1.55h.86v1.07h-29.08v-1.07h.96c1.43,0,2.67-.59,3.74-1.76,1.07-1.18,1.18-2.83.32-4.97h0Z"/>
  <path class="cls-4" d="m481.82,38.78v74.83h-11.44V38.78h11.44Zm-50.67,0v74.83h-11.44V38.78h11.44Zm40.2,35.81v3.85l-41.27-.11v-3.74h41.27Zm-51.32,31.22v7.8h-8.55v-1.07h1.39c1.85,0,3.44-.66,4.76-1.98,1.32-1.32,2.01-2.9,2.08-4.76h.32Zm0-59.22h-.32c-.07-1.85-.76-3.44-2.08-4.76-1.32-1.32-2.9-1.98-4.76-1.98h-1.39v-1.07h8.55v7.8h0Zm10.8,59.22h.32c.07,1.85.76,3.44,2.08,4.76s2.9,1.98,4.76,1.98h1.39v1.07h-8.55v-7.8h0Zm0-59.22v-7.8h8.55v1.07h-1.39c-1.85,0-3.44.66-4.76,1.98-1.32,1.32-2.01,2.9-2.08,4.76h-.32Zm39.88,59.22v7.8h-8.55v-1.07h1.39c1.85,0,3.46-.66,4.81-1.98,1.35-1.32,2.03-2.9,2.03-4.76h.32Zm0-59.22h-.32c0-1.85-.68-3.44-2.03-4.76-1.35-1.32-2.96-1.98-4.81-1.98h-1.39v-1.07h8.55v7.8h0Zm10.8,59.22h.32c.07,1.85.77,3.44,2.08,4.76,1.32,1.32,2.9,1.98,4.76,1.98h1.39v1.07h-8.55v-7.8h0Zm0-59.22v-7.8h8.55v1.07h-1.39c-1.85,0-3.44.66-4.76,1.98-1.32,1.32-2.01,2.9-2.08,4.76h-.32Z"/>
  <path class="cls-4" d="m519.02,38.78l.11,47.04c0,5.06.89,9.5,2.67,13.31,1.78,3.81,4.29,6.77,7.54,8.87,3.24,2.1,7.04,3.15,11.39,3.15,4.63,0,8.62-1,11.97-2.99,3.35-2,5.95-4.78,7.8-8.34,1.85-3.56,2.78-7.77,2.78-12.61v-48.43h6.31v48.11c0,5.7-1.21,10.66-3.64,14.86-2.42,4.21-5.86,7.48-10.32,9.84-4.45,2.35-9.75,3.53-15.87,3.53-6.77,0-12.56-1.16-17.37-3.48-4.81-2.32-8.48-5.58-11.01-9.78-2.53-4.2-3.79-9.16-3.79-14.86v-48.21h11.44,0Zm-11.12,0v6.41h-.32c0-1.57-.55-2.85-1.66-3.85-1.1-1-2.44-1.5-4.01-1.5h-1.71v-1.07h7.7Zm18.6,0l-.11,1.07h-1.71c-1.57,0-2.9.5-4.01,1.5s-1.66,2.28-1.66,3.85h-.21v-6.41h7.7Zm37.1,0v6.41h-.32c0-1.57-.55-2.85-1.66-3.85-1.1-1-2.44-1.5-4.01-1.5h-1.71v-1.07h7.7Zm13.36,0v1.07h-1.71c-1.57,0-2.9.5-4.01,1.5-1.1,1-1.66,2.28-1.66,3.85h-.21v-6.41h7.59Z"/>
  <path class="cls-4" d="m621.44,40.12v74.51h-11.44V40.12h11.44Zm26.83-.43v3.85h-65.1v-3.85h65.1Zm0,3.53v10.58l-1.07-.11v-1.5c0-2.5-.8-4.54-2.4-6.15-1.6-1.6-3.65-2.44-6.15-2.51v-.32h9.62Zm0-5.45v3.1l-13.04-1.18c1.57,0,3.23-.11,4.97-.32,1.75-.21,3.37-.46,4.86-.75,1.5-.29,2.57-.57,3.21-.86h0Zm-37.95,69.06v7.8h-8.55v-1.07h1.39c1.85,0,3.44-.66,4.76-1.98s2.01-2.9,2.08-4.76h.32Zm10.8,0h.32c.07,1.85.77,3.44,2.08,4.76,1.32,1.32,2.9,1.98,4.76,1.98h1.39v1.07h-8.55v-7.8h0Zm-28.33-63.61v.32c-2.57.07-4.63.91-6.2,2.51-1.57,1.6-2.35,3.65-2.35,6.15v1.5l-1.07.11v-10.58h9.62Zm-9.62-5.45c.71.28,1.8.57,3.26.86,1.46.28,3.08.53,4.86.75,1.78.21,3.42.32,4.92.32l-13.04,1.18v-3.1h0Z"/>
  <path class="cls-4" d="m679.7,38.7l33.25,76.01h-14.11l-23.52-60.62,4.38-15.4h0Zm-22.98,68.85c-.57,1.42-.68,2.64-.32,3.63.36,1,.96,1.76,1.82,2.3.86.53,1.71.8,2.57.8h.96v1.07h-22.24v-1.07h.96c1.64,0,3.33-.52,5.08-1.55,1.75-1.03,3.19-2.76,4.33-5.18h6.84Zm22.98-68.85l.64,10.26-26.73,66.07h-7.05l27.47-63.82c.14-.21.45-.84.91-1.87.46-1.03.98-2.24,1.55-3.64.57-1.39,1.07-2.74,1.5-4.06.43-1.32.68-2.3.75-2.94h.96,0Zm13.15,49.28v3.85h-32.5v-3.85h32.5Zm3.1,19.56h13.79c1.14,2.42,2.58,4.15,4.33,5.18,1.75,1.03,3.44,1.55,5.08,1.55h.86v1.07h-29.08v-1.07h.96c1.43,0,2.67-.59,3.74-1.76,1.07-1.18,1.18-2.83.32-4.97h0Z"/>
  <path class="cls-3" d="m305.67,144.42c3.23,0,5.78-1.21,7.36-3.3v-3.74h1.51v-1.99h-9.5v1.99h5.76v3.01c-1.19,1.17-2.99,1.89-5.12,1.89-3.88,0-6.7-2.43-6.7-7.31,0-4.25,2.6-7.02,6.31-7.02,2.7,0,5.15,1.48,5.49,4.44h2.43c-.36-3.91-3.5-6.63-7.92-6.63-5.46,0-8.74,4.37-8.74,8.91v.54c0,5.32,3.64,9.2,9.13,9.2h0Z"/>
  <path class="cls-3" d="m315.82,143.98h2.38l1.89-5.29h8.33l1.94,5.29h2.45l-6.58-17.73h-4.03l-6.39,17.73h0Zm5.03-7.43l2.89-8.16h.9l2.99,8.16h-6.77Z"/>
  <path class="cls-3" d="m341.69,144.42c4.18,0,6.99-2.28,6.99-5.56,0-2.84-2.28-4.56-5.9-4.88l-1.97-.17c-1.99-.17-2.99-1.29-2.99-2.6,0-1.68,1.24-3.25,3.89-3.25s3.86,1.65,3.86,3.33h2.38c0-3.38-2.55-5.51-6.24-5.51s-6.27,2.21-6.27,5.44c0,2.74,2.04,4.52,5.17,4.78l1.97.17c2.43.22,3.72,1.24,3.72,2.7,0,1.8-1.41,3.38-4.61,3.38-3.45,0-4.59-1.85-4.59-3.47h-2.38c0,3.28,2.55,5.66,6.97,5.66h0Z"/>
  <polygon class="cls-3" points="358.2 143.98 368.2 143.98 368.2 141.84 360.58 141.84 360.58 126.25 358.2 126.25 358.2 143.98 358.2 143.98"/>
  <polygon class="cls-3" points="373.25 143.98 375.64 143.98 375.64 128.39 381.03 128.39 381.03 126.25 367.86 126.25 367.86 128.39 373.25 128.39 373.25 143.98 373.25 143.98"/>
  <path class="cls-3" d="m384.23,144.08h6.07c6.39,0,9.47-4.54,9.47-8.72v-.53c0-4.27-3.09-8.67-9.47-8.67h-6.07v17.92h0Zm6.31-15.74c4.25,0,6.8,2.77,6.8,6.75s-2.55,6.8-6.8,6.8h-3.93v-13.55h3.93Z"/>
  <path class="cls-3" d="m275.79,144.42c1.94,0,3.52-.63,4.76-1.8l1.26,1.36h2.74l-2.77-2.94c1.02-1.7,1.55-4.01,1.6-6.77h1.46v-1.85h-6.36v1.85h2.82c-.02,2.16-.39,3.89-1.02,5.2l-4.35-4.64c-1.43-1.53-2.06-2.57-2.06-4.01,0-1.77.8-2.72,3.11-2.72.95,0,3.04.15,4.03.24v-2.04c-1.04-.12-2.5-.24-3.57-.24-4.08,0-5.8,1.55-5.8,4.71,0,1.07.22,1.92.88,2.96-1.7,1.12-2.96,2.86-2.96,5v.36c0,2.99,2.5,5.32,6.24,5.32h0Zm-4.01-5.49c0-1.48.78-2.79,1.97-3.59.22.27.49.56.75.85l4.64,4.93c-.9.87-2.01,1.31-3.35,1.31-2.21,0-4.01-1.21-4.01-3.5h0Z"/>
</svg>