<?xml version="1.0" encoding="UTF-8"?>
<svg id="Layer_1" data-name="Layer 1" xmlns="http://www.w3.org/2000/svg" viewBox="0 0 720 720">
  <defs>
    <style>
      .cls-1 {
        fill: #c93;
      }

      .cls-1, .cls-2 {
        fill-rule: evenodd;
      }

      .cls-1, .cls-2, .cls-3 {
        stroke-width: 0px;
      }

      .cls-2, .cls-3 {
        fill: #1a1a1a;
      }
    </style>
  </defs>
  <path class="cls-2" d="m6.78,91.51l39.37,33.53v445.73h-.37c-2.71,28.73-20.43,53.51-45.91,67.67v.04h117.96v-.04c-25.49-14.16-43.2-38.94-45.92-67.67h-.37V146.67l290.72,247.6L688.79,116.38v-27.97l-289.21,246.78L113.88,91.5H6.78Z"/>
  <path class="cls-3" d="m631.72,267.11v332.32c-8.03,16.24-21.26,29.85-37.75,39.01v.04h126.03v-.04c-16.49-9.16-29.72-22.76-37.75-39V195.74l-50.53,42.44v28.93h0Z"/>
  <path class="cls-1" d="m368.13,126.75c56.5,0,107.64,22.97,144.59,60.07l-19.58,16.7c-32.19-31.62-76.32-51.12-125.01-51.12-98.53,0-178.41,79.87-178.41,178.41s79.87,178.41,178.41,178.41c89.63,0,163.81-66.09,176.49-152.19l-14.24,11.96-44.78,37.61v-46.47l44.7-37.55,15.03-12.62,22.92-19.25c2.59,12.97,3.94,26.38,3.94,40.11,0,112.7-91.36,204.06-204.06,204.06s-204.06-91.36-204.06-204.06,91.36-204.06,204.06-204.06h0Zm0-43.97c69.89,0,133.03,28.92,178.11,75.44l-23.77,20.28.47.47c-39.36-40.11-94.17-65-154.8-65-119.76,0-216.85,97.08-216.85,216.84s97.09,216.84,216.85,216.84,216.84-97.08,216.84-216.84c0-17.01-1.96-33.55-5.65-49.41l26.35-22.13c6.82,22.65,10.49,46.67,10.49,71.54,0,136.99-111.05,248.03-248.03,248.03s-248.03-111.05-248.03-248.03,111.05-248.03,248.03-248.03h0Z"/>
</svg>